<?xml version="1.0" encoding="UTF-8"?>
<svg width="24px" height="24px" viewBox="0 0 24 24" version="1.1" xmlns="http://www.w3.org/2000/svg">
    <g stroke="none" stroke-width="1" fill="none" fill-rule="evenodd">
        <path d="M20,2 C21.1046,2 22,2.89543 22,4 L22,16 C22,17.1046 21.1046,18 20,18 L6,18 L2,22 L2.01,4 C2.01,2.89543 2.90543,2 4.01,2 L20,2 Z M20,4 L4.01,4 L4,18 L5.867,16.133 C6.05375,15.9463 6.30206,15.8409 6.56,15.84 L20,15.84 L20,4 Z M8,9 L16,9 C16.5523,9 17,9.44772 17,10 C17,10.5523 16.5523,11 16,11 L8,11 C7.44772,11 7,10.5523 7,10 C7,9.44772 7.44772,9 8,9 Z M8,6 L16,6 C16.5523,6 17,6.44772 17,7 C17,7.55228 16.5523,8 16,8 L8,8 C7.44772,8 7,7.55228 7,7 C7,6.44772 7.44772,6 8,6 Z" fill="#666666" fill-rule="nonzero"/>
    </g>
</svg>
