<?xml version="1.0" encoding="UTF-8"?>
<svg width="24px" height="24px" viewBox="0 0 24 24" version="1.1" xmlns="http://www.w3.org/2000/svg">
    <g stroke="none" stroke-width="1" fill="none" fill-rule="evenodd">
        <path d="M12,21 C11.8684228,21.0008068 11.7401898,20.9551283 11.63,20.87 L4.55,15.27 C2.236,13.335 1.736,10.002 3.333,7.458 C4.197,6.148 5.452,5.202 6.906,4.782 C8.359,4.362 9.903,4.49 11.27,5.14 L12,5.5 L12.73,5.14 C14.097,4.49 15.641,4.362 17.094,4.782 C18.548,5.202 19.803,6.148 20.667,7.458 C22.264,10.002 21.764,13.335 19.45,15.27 L12.37,20.87 C12.2598102,20.9551283 12.1315772,21.0008068 12,21 Z M12,7 L11.39,6.64 C10.3811875,6.12751365 9.24267312,6.02578085 8.17327316,6.35201547 C7.1038732,6.67825009 6.17430555,7.41091239 5.53,8.42 C4.386,10.228 4.751,12.654 6.45,14.08 L12,18.41 L17.55,14.08 C19.249,12.654 19.614,10.228 18.47,8.42 C17.8256944,7.41091239 16.8961268,6.67825009 15.8267268,6.35201547 C14.7573269,6.02578085 13.6188125,6.12751365 12.61,6.64 L12,7 Z" fill="#666666" fill-rule="nonzero"/>
    </g>
</svg>
